<svg xmlns="http://www.w3.org/2000/svg" viewBox="0 0 108 108" enable-background="new 0 0 108 108"><style type="text/css">.st0{fill:none;stroke:#686868;stroke-width:3;stroke-miterlimit:10;} .st1{fill:#686868;}</style><path d="M52 13.1l1.5 1s3.6 1.1 9.5 2.6c4.6 1.2 5.8 7.7 5.8 7.7S81.1 36.1 84 38c2.9 1.8 2.5 3.2 2.5 3.2v3.4s2.8 3.9 0 7.6c-3.1 4.2-7.3 6.5-12.6 3.2 0 0-3.5-2.4-4.7-4.2-1.2-1.8-4.7-3.4-7.1-2.2-2.4 1.2-4.5 2.4-6.7 2.4s-9.9-3.7-10.9-12.9m7.7-17.3v-17c0-1-.8-1.8-1.8-1.8 0 0-8.6.1-9 8.4 0 0-18.2.2-22.9 17.3s6 44.6 6 44.6c.4.9 1.5 1.7 2.5 1.7h45.3c1 0 2-.8 2.2-1.8 0 0 2.2-10.5-19.1-21.3M42.3 19.8s-23 2-6.3 54.5" class="st0"/><circle cx="59.9" cy="29.6" r="2.4" class="st1"/><path d="M48.7 74.3h23.9s-1.9 4 1.9 6.2c3.8 2.3 13.8 7.5 6.6 12.2H18.4c-7.2-4.7 2.7-10 6.6-12.2s1.2-6.2 1.2-6.2h22.6m32.3 18.4s-3.1 1.4 1.4 2.4 7 8 7 8H10.8s.7-5.5 5-6.8c4.4-1.3 2.6-3.6 2.6-3.6" class="st0"/></svg>